<?xml version="1.0" encoding="UTF-8"?>
<!-- Created with Inkscape (http://www.inkscape.org/) -->
<svg width="129" height="40" version="1.1" viewBox="0 0 34.1 10.6" xmlns="http://www.w3.org/2000/svg">
 <path d="m15.1 2.11e-4c-0.0928 0.00106-0.187 0.0076-0.28 0.0199-0.999 0.132-1.81 0.887-2 1.88-0.197 0.989 0.258 1.99 1.13 2.5 0.295 0.17 0.494-0.331 0.269-0.459-0.679-0.386-1.03-1.17-0.875-1.93 0.152-0.767 0.773-1.35 1.55-1.45 0.775-0.102 1.53 0.299 1.87 1 0.354 0.718 0.285 1.46-0.345 2.09-0.438 0.44-0.754 0.915-0.875 1.5-0.0769 0.369 0.464 0.318 0.528 0.0624 0.118-0.474 0.458-0.912 0.725-1.18 0.774-0.777 0.883-1.82 0.446-2.71-0.404-0.819-1.24-1.33-2.14-1.32zm-0.879 2.01c-0.164 2.74e-4 -0.368 0.133-0.307 0.401 0.0937 0.408 0.305 1.19 0.68 1.19v6.64e-4c0.243 0 0.46-0.32 0.603-0.525 0.144 0.263 0.36 0.344 0.537 0.262 0.158-0.073 0.49-0.608 0.613-0.941 0.0945-0.256-0.31-0.369-0.388-0.219-0.115 0.219-0.287 0.414-0.359 0.547-0.114-0.116-0.192-0.201-0.272-0.249-0.183-0.11-0.335-0.0564-0.422 0.0751-0.0809 0.121-0.169 0.259-0.23 0.361-0.0176-0.0396-0.023-0.0355-0.0425-0.0883-0.063-0.171-0.14-0.407-0.233-0.709-0.0192-0.0717-0.0935-0.108-0.179-0.108zm-3.63 1.79-1.67 0.407v0.095c0.267 0.0716 0.464 0.146 0.464 0.474v5.06c0 0.341-0.141 0.432-0.454 0.511v0.095h2.22v-0.095c-0.223-0.0597-0.417-0.166-0.417-0.493v-3.3c0.63-0.38 1.53-0.813 1.53 0.303v2.98c0 0.327-0.133 0.443-0.455 0.511v0.095h2.22v-0.095c-0.238-0.123-0.416-0.146-0.416-0.502v-2.67c0-0.761-0.397-1.43-1.22-1.43-0.827 0-1.34 0.356-1.69 0.664 0-0.84-8.3e-5 -1.68 0.0379-2.52zm22.9 0-1.73 0.407v0.095c0.267 0.0714 0.464 0.105 0.464 0.464v5.07c0 0.283-0.141 0.432-0.454 0.511v0.095h2.26v-0.095c-0.267-0.113-0.445-0.157-0.455-0.511l-0.01-4.62 0.0379-1.33zm-33.5 0.389v0.0943c0.252 0.0674 0.425 0.227 0.521 0.55l1.68 5.64h0.653l1.46-4.45 1.42 4.45h0.654l1.57-5.53c0.119-0.42 0.239-0.552 0.644-0.654v-0.0943h-1.32v0.0943c0.373 0.128 0.538 0.192 0.389 0.711l-1.14 3.95-1.2-4.03c-0.121-0.406 0.0254-0.507 0.464-0.634v-0.095h-2.38v0.095c0.274 0.147 0.418 0.267 0.521 0.587l0.218 0.673-1.12 3.31-1.03-3.94c-0.0966-0.369 0.0897-0.504 0.503-0.626v-0.0943zm29.1 1.55c-0.347 0-0.67 0.0444-0.966 0.133-0.297 0.0884-0.537 0.221-0.721 0.398-0.177 0.177-0.265 0.372-0.265 0.654 0 0.311 0.165 0.559 0.569 0.559 0.411 0 0.61-0.283 0.644-0.786 0.0832-0.351 0.049-0.758 0.549-0.758 0.524 0 0.644 0.512 0.644 1.16v0.749c-0.235 0.0443-0.484 0.0909-0.739 0.133-0.651 0.126-1.13 0.316-1.43 0.569-0.303 0.246-0.455 0.518-0.455 0.815 0 0.392 0.123 0.692 0.369 0.9 0.253 0.208 0.562 0.313 0.929 0.313 0.316 0 0.572-0.0696 0.768-0.209 0.202-0.145 0.398-0.319 0.587-0.521 0.0506 0.215 0.155 0.388 0.313 0.521 0.164 0.126 0.386 0.189 0.664 0.189 0.259 0 0.457-0.0408 0.596-0.123 0.145-0.0821 0.278-0.199 0.398-0.351l-0.085-0.0757h-0.209c-0.265 0-0.398-0.142-0.398-0.426v-2.09c0-0.619-0.155-1.06-0.464-1.34-0.303-0.278-0.736-0.417-1.3-0.417zm-12.9 0.00996-1.73 0.559v0.095c0.275 0.0952 0.465 0.148 0.465 0.464v2.97c0 0.286-0.116 0.441-0.465 0.511v0.095h2.22v-0.095c-0.248-0.0664-0.416-0.139-0.416-0.502l0.0286-4zm6.99 0.0472-1.7 0.331v0.095c0.257 0.111 0.413 0.131 0.426 0.483l-0.0279 2.44c-0.0062 0.347-0.0793 0.808 0.401 1.14 0.48 0.335 1.61 0.383 2.46-0.31l0.085 0.559 1.66-0.095v-0.095c-0.131-0.043-0.276-0.102-0.341-0.218-0.0652-0.115-0.0565-0.183-0.0565-0.322v-2.57l0.0279-1.35-0.0943-0.0943-1.66 0.36v0.095c0.253 0.104 0.408 0.0758 0.408 0.464l-0.0385 3.09c-0.264 0.152-0.576 0.338-0.891 0.304-0.347-0.0384-0.581-0.142-0.616-0.588v-2.28l0.0472-1.35zm-5.93 0.085-0.0664 1.31h0.095c0.18-0.428 0.371-1.12 0.995-1.12h1.43l-2.59 4.22v0.151h3.93l0.0857-1.42h-0.095c-0.239 0.602-0.388 1.23-1.04 1.23h-1.49l2.53-4.24v-0.133zm12.3 2.16v1.59c-0.402 0.3-0.81 0.564-1.18 0.181-0.125-0.128-0.18-0.329-0.18-0.588 0-0.303 0.0667-0.563 0.256-0.72 0.289-0.24 0.681-0.431 1.11-0.464z" color="#000000" fill="#fff" stroke-linecap="round"/>
</svg>
